<svg width="84" height="79" viewBox="0 0 84 79" fill="none" xmlns="http://www.w3.org/2000/svg">
<path d="M41.4062 72C60.7362 72 76.4062 56.33 76.4062 37C76.4062 17.67 60.7362 2 41.4062 2C22.0763 2 6.40625 17.67 6.40625 37C6.40625 56.33 22.0763 72 41.4062 72Z" fill="#F5F5F5"/>
<path d="M42.3358 2.24121L35.3594 17.0909L38.15 25.3791L43.3823 30.9046H51.0564L51.754 20.5443L60.8234 6.38531L42.3358 2.24121Z" fill="white"/>
<path d="M41.8538 2.3252L37.8438 11.9541" stroke="#2A5182" stroke-width="2.7" stroke-linecap="round" stroke-linejoin="round"/>
<path d="M60.4894 6.71582L54.3916 15.2989C54.3916 15.2989 49.2459 22.2019 51.062 30.4557" stroke="#2A5182" stroke-width="2.7" stroke-linecap="round" stroke-linejoin="round"/>
<path d="M35.4658 18.1543L27.0582 20.9349L21.4531 33.7951L43.8734 50.131L61.0389 59.5154L75.0516 60.5581L75.7522 58.8203L64.8924 52.564L55.7841 51.5213L45.2747 31.3621L36.5167 24.4106L35.4658 18.1543Z" fill="#A3D4FF"/>
<path d="M23.05 26.3432L27.1919 21.5186L28.9177 23.2416L33.0597 32.2016L28.9177 38.0601L46.8663 53.2232L62.3986 60.1155H73.789L71.718 64.5955L52.0437 62.8724L17.5273 38.0601L20.6338 32.2016L23.05 26.3432Z" fill="white"/>
<path d="M52.6283 31.7663C52.9042 31.4945 47.2241 31.653 44.3496 31.7663L51.5934 46.0336L57.1126 51.8085H63.3216C59.6422 45.241 52.3523 32.038 52.6283 31.7663Z" fill="white"/>
<path d="M35.06 17.4814C35.06 17.4814 21.5785 20.1323 20.7976 33.5263L17.9373 37.2238C17.2459 38.1175 17.4511 39.4028 18.3867 40.0416L51.9661 62.9546C55.811 65.578 69.8313 65.2576 69.8313 65.2576C73.6073 65.2576 76.4058 63.6969 76.4058 60.3515C76.4058 56.1393 70.2359 55.2568 70.2359 55.2568C70.2359 55.2568 65.8323 54.2595 64.4692 51.9094L57.3963 39.4056L52.6717 31.1268C52.6717 31.1268 36.9122 34.4257 35.0585 17.4814H35.06Z" stroke="#2A5182" stroke-width="2.7" stroke-linecap="round" stroke-linejoin="round"/>
<path d="M20.7988 33.6338L50.4953 54.9083C55.531 58.5159 61.5819 60.5569 67.8093 60.5569C70.1978 60.5569 75.7521 60.5352 75.7521 60.5352" stroke="#2A5182" stroke-width="2.7" stroke-linecap="round" stroke-linejoin="round"/>
<path d="M27.3398 21.5186C27.3398 21.5186 37.4658 30.5942 29.548 39.6916" stroke="#2A5182" stroke-width="2.7" stroke-linecap="round" stroke-linejoin="round"/>
<path d="M43.6953 30.2695L53.2176 48.1436C54.8751 51.2557 58.2835 52.951 61.7058 52.3669L63.9757 51.979" stroke="#2A5182" stroke-width="2.7" stroke-linecap="round" stroke-linejoin="round"/>
<path d="M56.1264 34.9805L52.2012 36.3266" stroke="#2A5182" stroke-width="2.7" stroke-linecap="round" stroke-linejoin="round"/>
<path d="M58.7436 39.6924L54.8184 41.0385" stroke="#2A5182" stroke-width="2.7" stroke-linecap="round" stroke-linejoin="round"/>
<path d="M61.3588 45.0762L57.4336 45.7492" stroke="#2A5182" stroke-width="2.7" stroke-linecap="round" stroke-linejoin="round"/>
<path d="M56.1264 34.9805L52.2012 36.3266" stroke="#2A5182" stroke-width="2.7" stroke-linecap="round" stroke-linejoin="round"/>
</svg>
