<svg width="80" height="77" viewBox="0 0 80 77" fill="none" xmlns="http://www.w3.org/2000/svg">
<g clip-path="url(#clip0_761_655)">
<path d="M38.2526 70.7004C57.5582 70.7004 73.2084 55.1871 73.2084 36.0504C73.2084 16.9137 57.5582 1.40039 38.2526 1.40039C18.9471 1.40039 3.29688 16.9137 3.29688 36.0504C3.29688 55.1871 18.9471 70.7004 38.2526 70.7004Z" fill="#F5F5F5"/>
<path d="M24.943 1.2627C24.943 1.2627 24.9933 1.2627 25.0184 1.2627C25.0435 1.2627 25.0687 1.2627 25.0938 1.2627H24.943ZM25.0184 1.2627C23.2707 1.30056 21.875 2.72696 21.875 4.48155V63.1152H28.1618V4.49417C28.1618 2.73958 26.7661 1.31319 25.0184 1.27532V1.2627Z" fill="white"/>
<path d="M28.1618 8.83647V63.1152H21.875V4.49417C21.875 2.71433 23.321 1.2627 25.0938 1.2627C26.1375 1.2627 26.9925 1.75499 27.5708 2.52499" stroke="#2A5082" stroke-width="2.5" stroke-miterlimit="10"/>
<path d="M6.79297 63L64.1204 63" stroke="#2A5082" stroke-width="2.5" stroke-miterlimit="10"/>
<path d="M66.3094 29.7652C66.3094 29.7652 72.7974 21.8506 74.6834 16.4102C66.1962 18.8338 48.9075 17.887 47.0215 16.4102V40.3938C50.2655 45.0769 70.3833 43.1329 77.1982 39.1315C71.8544 35.2436 66.3094 29.7652 66.3094 29.7652Z" fill="#A3D4FF"/>
<path d="M47.0215 34.0823V40.3938C50.2655 45.0769 70.3833 43.1329 77.1981 39.1315C71.8544 35.2436 66.3094 29.7652 66.3094 29.7652C66.3094 29.7652 72.7974 21.8506 74.6834 16.4102C66.1962 18.8338 48.9075 17.887 47.0215 16.4102V25.2462" stroke="#2A5082" stroke-width="2.5" stroke-miterlimit="10"/>
<path d="M53.3209 11.3604L47.0215 15.1472V34.0817L47.0341 39.1308L48.2537 40.3931L54.5657 34.0817V32.8194L54.6034 13.8849L53.3209 11.3604Z" fill="#E9EAEB"/>
<path d="M46.998 15.1472L53.31 11.3604L54.5925 13.8849L54.5674 32.8194V34.0817L48.2554 40.3931L47.0232 39.1308V34.0817" stroke="#2A5082" stroke-width="2.5" stroke-miterlimit="10"/>
<path d="M54.5664 9.08848C48.3802 4.25389 26.8039 3.88782 21.875 8.83602V32.8196C28.8156 29.7901 43.6525 28.7424 53.1959 32.8196H54.5664V9.08848Z" fill="#A3D4FF" stroke="#2A5082" stroke-width="2.5" stroke-miterlimit="10"/>
<path d="M28.1621 8.83594V27.7704" stroke="#2A5082" stroke-width="2.5" stroke-miterlimit="10"/>
<path d="M19.3604 56.8037H30.6767C32.0598 56.8037 33.1914 57.9398 33.1914 59.3283V63.1152H16.8457V59.3283C16.8457 57.9398 17.9773 56.8037 19.3604 56.8037Z" fill="white" stroke="#2A5082" stroke-width="2.5" stroke-miterlimit="10"/>
</g>
<defs>
<clipPath id="clip0_761_655">
<rect width="79" height="77" fill="white" transform="translate(0.5)"/>
</clipPath>
</defs>
</svg>
