<svg width="82" height="70" viewBox="0 0 82 70" fill="none" xmlns="http://www.w3.org/2000/svg">
<g clip-path="url(#clip0_507_1792)">
<path d="M65.661 60.5609C79.4323 46.9963 79.4323 25.0037 65.661 11.4391C51.8896 -2.12551 29.5619 -2.12551 15.7906 11.4391C2.01932 25.0037 2.01932 46.9963 15.7906 60.5609C29.5619 74.1255 51.8896 74.1255 65.661 60.5609Z" fill="#F5F5F5"/>
<path d="M56.2515 32.4292H2.48438V48.6345L15.6715 53.7621C16.4244 50.5484 19.3515 48.1449 22.8403 48.1449C26.5104 48.1449 29.5593 50.803 30.1109 54.2663H57.2529C57.8046 50.803 60.8535 48.1449 64.5236 48.1449C68.1937 48.1449 71.2426 50.803 71.7943 54.2663H77.0547C78.4114 54.2663 79.5147 53.1796 79.5147 51.8432V44.0796C69.8263 43.8275 64.0043 40.653 60.7963 37.9705C58.1798 35.7824 56.833 33.5771 56.249 32.4268L56.2515 32.4292Z" fill="#A3D4FF"/>
<path d="M79.0846 28.7329C77.6707 20.2913 70.3404 14.165 61.6559 14.165H58.2988V30.965C58.5846 31.6063 59.745 33.9217 62.528 36.2101C66.6231 39.5755 72.4774 41.4381 79.5145 41.6339V33.9119C79.5145 32.1839 79.3703 30.4413 79.0846 28.7353V28.7329Z" fill="white"/>
<path d="M37.2719 14.165H21.2148V29.9811H37.2719V14.165Z" fill="white"/>
<path d="M55.8149 14.165H39.7578V29.9811H55.8149V14.165Z" fill="white"/>
<path d="M2.48438 19.9584V29.9811H18.7303V14.165H8.36353C5.1208 14.165 2.48438 16.7643 2.48438 19.9559V19.9584Z" fill="white"/>
<path d="M19.9727 12.9414V31.205" stroke="#2A5182" stroke-width="3" stroke-miterlimit="10" stroke-linecap="round"/>
<path d="M38.5156 12.9414V31.205" stroke="#2A5182" stroke-width="3" stroke-miterlimit="10" stroke-linecap="round"/>
<path d="M57.0566 12.9414V31.205" stroke="#2A5182" stroke-width="3" stroke-miterlimit="10" stroke-linecap="round"/>
<path d="M70.6291 55.4916H77.0549C79.0999 55.4916 80.7573 53.8591 80.7573 51.8448V33.9115C80.7573 32.1101 80.6082 30.3136 80.3101 28.5367C78.8042 19.542 70.9099 12.9434 61.6538 12.9434H8.36376C4.43025 12.9434 1.24219 16.0836 1.24219 19.958V49.4682L16.7352 55.4941" stroke="#2A5182" stroke-width="3" stroke-miterlimit="10" stroke-linecap="round"/>
<path d="M28.9492 55.4922H58.417" stroke="#2A5182" stroke-width="3" stroke-miterlimit="10" stroke-linecap="round"/>
<path d="M22.8404 61.4199C26.2191 61.4199 28.958 58.722 28.958 55.394C28.958 52.066 26.2191 49.3682 22.8404 49.3682C19.4616 49.3682 16.7227 52.066 16.7227 55.394C16.7227 58.722 19.4616 61.4199 22.8404 61.4199Z" stroke="#2A5182" stroke-width="3" stroke-miterlimit="10" stroke-linecap="round"/>
<path d="M64.522 61.4199C67.9007 61.4199 70.6397 58.722 70.6397 55.394C70.6397 52.066 67.9007 49.3682 64.522 49.3682C61.1433 49.3682 58.4043 52.066 58.4043 55.394C58.4043 58.722 61.1433 61.4199 64.522 61.4199Z" stroke="#2A5182" stroke-width="3" stroke-miterlimit="10" stroke-linecap="round"/>
<path d="M57.0569 31.2051H1.24219" stroke="#2A5182" stroke-width="3" stroke-miterlimit="10" stroke-linecap="round"/>
<path d="M57.0566 31.2051C57.0566 31.2051 61.2784 42.875 80.7571 42.875" stroke="#2A5182" stroke-width="3" stroke-miterlimit="10" stroke-linecap="round"/>
</g>
<defs>
<clipPath id="clip0_507_1792">
<rect width="82" height="70" fill="white"/>
</clipPath>
</defs>
</svg>
